# xmcd
#
# Track frame offsets: 
#        150
#        10309
#        20193
#        34779
#        68438
#        89596
#        112872
#        133208
#        150211
#        166831
#        178603
#        192649
#        213947
#        234270
#
# Disc length: 3498 seconds
#
# Revision: 0
# Processed by: cddbd v1.5.2PL0 Copyright (c) Steve Scherf et al.
# Submitted via: ExactAudioCopy v0.95a5
#
DISCID=b00da80e
DTITLE=Buddy Guy with Junior Wells - Everyday I Have The Blues
DYEAR=2004
DGENRE=Blues
TTITLE0=First Time I Met The Blues
TTITLE1=Slop Around
TTITLE2=Broken Hearted Blues
TTITLE3=Stone Crazy
TTITLE4=Buddy's Blues
TTITLE5=Stormy Monday
TTITLE6=Everyday I Have The Blues
TTITLE7=Woman Blues
TTITLE8=Satisfaction
TTITLE9=Messin' With The Kid
TTITLE10=No Use Crying
TTITLE11=Just To Be With You
TTITLE12=Junior's Shuffle
TTITLE13=Out Of Sight
EXTD=
EXTT0=
EXTT1=
EXTT2=
EXTT3=
EXTT4=
EXTT5=
EXTT6=
EXTT7=
EXTT8=
EXTT9=
EXTT10=
EXTT11=
EXTT12=
EXTT13=
PLAYORDER=
